<svg width="55" height="55" viewBox="0 0 55 55" fill="none" xmlns="http://www.w3.org/2000/svg">
<path d="M27.5 13.7502C26.2396 13.7502 25.1606 13.3014 24.263 12.4038C23.3655 11.5062 22.9167 10.4272 22.9167 9.16683C22.9167 7.90641 23.3655 6.82742 24.263 5.92985C25.1606 5.03228 26.2396 4.5835 27.5 4.5835C28.7604 4.5835 29.8394 5.03228 30.737 5.92985C31.6346 6.82742 32.0833 7.90641 32.0833 9.16683C32.0833 10.4272 31.6346 11.5062 30.737 12.4038C29.8394 13.3014 28.7604 13.7502 27.5 13.7502ZM20.625 50.4168V20.6252H6.875V16.0418H48.125V20.6252H34.375V50.4168H29.7917V36.6668H25.2083V50.4168H20.625Z" fill="#163200"/>
</svg>
