<svg width="55" height="55" viewBox="0 0 55 55" fill="none" xmlns="http://www.w3.org/2000/svg">
<path d="M9.16658 43.5418C7.90617 43.5418 6.82718 43.093 5.92961 42.1955C5.03204 41.2979 4.58325 40.2189 4.58325 38.9585V16.0418C4.58325 14.7814 5.03204 13.7024 5.92961 12.8049C6.82718 11.9073 7.90617 11.4585 9.16658 11.4585H45.8333C47.0937 11.4585 48.1727 11.9073 49.0702 12.8049C49.9678 13.7024 50.4166 14.7814 50.4166 16.0418V38.9585C50.4166 40.2189 49.9678 41.2979 49.0702 42.1955C48.1727 43.093 47.0937 43.5418 45.8333 43.5418H9.16658ZM9.16658 38.9585H45.8333V16.0418H9.16658V38.9585ZM18.3333 36.6668H36.6666V32.0835H18.3333V36.6668ZM11.4583 29.7918H16.0416V25.2085H11.4583V29.7918ZM18.3333 29.7918H22.9166V25.2085H18.3333V29.7918ZM25.2083 29.7918H29.7916V25.2085H25.2083V29.7918ZM32.0833 29.7918H36.6666V25.2085H32.0833V29.7918ZM38.9583 29.7918H43.5416V25.2085H38.9583V29.7918ZM11.4583 22.9168H16.0416V18.3335H11.4583V22.9168ZM18.3333 22.9168H22.9166V18.3335H18.3333V22.9168ZM25.2083 22.9168H29.7916V18.3335H25.2083V22.9168ZM32.0833 22.9168H36.6666V18.3335H32.0833V22.9168ZM38.9583 22.9168H43.5416V18.3335H38.9583V22.9168Z" fill="#163200"/>
</svg>
