<svg width="59" height="50" viewBox="0 0 59 50" fill="none" xmlns="http://www.w3.org/2000/svg">
<path d="M39.4167 14.6002C42.0394 17.2432 43.6667 20.9262 43.6667 25C43.6667 28.2784 42.25 32.2814 39.4167 35.1939M47.5312 6.46474C52.1458 11.2083 55 17.7615 55 25C55 30.8908 53.5833 38.1064 47.9167 42.4752M24.8528 44.3194C26.6982 45.9002 29.5 44.5513 29.5 42.0819V38.1064V25V7.9181C29.5 5.44875 26.6982 4.09979 24.8528 5.68063L17.6 11.8936L12.5 16.2624H6.83333C5.26853 16.2624 4 17.5664 4 19.175V30.8251C4 32.4336 5.26853 33.7376 6.83333 33.7376L12.4998 33.7371C14.9118 35.8033 16.2642 36.9618 18.6762 39.028L24.8528 44.3194Z" stroke="#F5F5F5" stroke-width="8" stroke-linecap="round" stroke-linejoin="round"/>
</svg>
