<svg width="55" height="55" viewBox="0 0 55 55" fill="none" xmlns="http://www.w3.org/2000/svg">
<path d="M28.6458 34.3752C30.2499 34.3752 31.6058 33.8213 32.7135 32.7137C33.8211 31.6061 34.3749 30.2502 34.3749 28.646V16.0418H41.2499V11.4585H32.0833V24.0627C31.5867 23.6807 31.052 23.3943 30.4791 23.2033C29.9062 23.0123 29.2951 22.9168 28.6458 22.9168C27.0416 22.9168 25.6857 23.4706 24.578 24.5783C23.4704 25.6859 22.9166 27.0418 22.9166 28.646C22.9166 30.2502 23.4704 31.6061 24.578 32.7137C25.6857 33.8213 27.0416 34.3752 28.6458 34.3752ZM18.3333 41.2502C17.0728 41.2502 15.9938 40.8014 15.0963 39.9038C14.1987 39.0062 13.7499 37.9272 13.7499 36.6668V9.16683C13.7499 7.90641 14.1987 6.82742 15.0963 5.92985C15.9938 5.03228 17.0728 4.5835 18.3333 4.5835H45.8333C47.0937 4.5835 48.1727 5.03228 49.0702 5.92985C49.9678 6.82742 50.4166 7.90641 50.4166 9.16683V36.6668C50.4166 37.9272 49.9678 39.0062 49.0702 39.9038C48.1727 40.8014 47.0937 41.2502 45.8333 41.2502H18.3333ZM18.3333 36.6668H45.8333V9.16683H18.3333V36.6668ZM9.16658 50.4168C7.90617 50.4168 6.82718 49.968 5.92961 49.0705C5.03204 48.1729 4.58325 47.0939 4.58325 45.8335V13.7502H9.16658V45.8335H41.2499V50.4168H9.16658Z" fill="#163200"/>
</svg>
