<svg width="49" height="48" viewBox="0 0 49 48" fill="none" xmlns="http://www.w3.org/2000/svg">
<path d="M40.6071 13.6002C43.3181 16.2432 45 19.9262 45 24C45 27.2784 43.5357 31.2814 40.6071 34.1939M25.5537 43.3194C27.4612 44.9002 30.3571 43.5513 30.3571 41.0819V37.1064V24V6.9181C30.3571 4.44875 27.4612 3.09979 25.5537 4.68063L18.0571 10.8936L12.7857 15.2624H6.92857C5.31117 15.2624 4 16.5664 4 18.175V29.8251C4 31.4336 5.31117 32.7376 6.92857 32.7376L12.7855 32.7371C15.2786 34.8033 16.6764 35.9618 19.1695 38.028L25.5537 43.3194Z" stroke="#F5F5F5" stroke-width="8" stroke-linecap="round" stroke-linejoin="round"/>
</svg>
