<svg width="55" height="55" viewBox="0 0 55 55" fill="none" xmlns="http://www.w3.org/2000/svg">
<path d="M9.16659 50.4167C7.90617 50.4167 6.82718 49.9679 5.92961 49.0703C5.03204 48.1727 4.58325 47.0938 4.58325 45.8333V9.16667C4.58325 7.90625 5.03204 6.82726 5.92961 5.92969C6.82718 5.03212 7.90617 4.58333 9.16659 4.58333H27.8437L23.2603 9.16667H9.16659V45.8333H34.3749V41.25H38.9583V45.8333C38.9583 47.0938 38.5095 48.1727 37.6119 49.0703C36.7143 49.9679 35.6353 50.4167 34.3749 50.4167H9.16659ZM13.7499 41.25V36.6667H29.7916V41.25H13.7499ZM13.7499 34.375V29.7917H25.2083V34.375H13.7499ZM34.3749 34.375L25.2083 25.2083H18.3333V13.75H25.2083L34.3749 4.58333V34.375ZM38.9583 27.3854V11.5729C40.3333 12.375 41.4409 13.4635 42.2812 14.8385C43.1214 16.2135 43.5416 17.7604 43.5416 19.4792C43.5416 21.1979 43.1214 22.7448 42.2812 24.1198C41.4409 25.4948 40.3333 26.5833 38.9583 27.3854ZM38.9583 37.2396V32.4271C41.6319 31.4722 43.828 29.8203 45.5468 27.4714C47.2655 25.1224 48.1249 22.4583 48.1249 19.4792C48.1249 16.5 47.2655 13.8359 45.5468 11.487C43.828 9.13802 41.6319 7.48611 38.9583 6.53125V1.71875C42.9305 2.75 46.2152 4.89844 48.8124 8.16406C51.4096 11.4297 52.7083 15.2014 52.7083 19.4792C52.7083 23.7569 51.4096 27.5286 48.8124 30.7943C46.2152 34.0599 42.9305 36.2083 38.9583 37.2396Z" fill="#163200"/>
</svg>
